Coordinates
version=1
nRows=19
nColumns=24
inDegrees=yes

Units are S.I. units (second, meters, Newtons, ...)
Angles are in degrees.

endheader
time	pelvis_tilt	pelvis_list	pelvis_rotation	pelvis_tx	pelvis_ty	pelvis_tz	hip_flexion_r	hip_adduction_r	hip_rotation_r	knee_angle_r	ankle_angle_r	subtalar_angle_r	mtp_angle_r	hip_flexion_l	hip_adduction_l	hip_rotation_l	knee_angle_l	ankle_angle_l	subtalar_angle_l	mtp_angle_l	lumbar_extension	lumbar_bending	lumbar_rotation
      5.88000000	     37.36970842	      2.16266107	      2.12082399	      0.69788678	      0.67695115	     -0.26522190	    -21.82992042	     -5.67508975	    -12.42429396	    -66.54540168	      6.27765645	     -1.21964766	      0.00000000	    -29.30579345	      4.75969897	     -3.63149361	    -14.98656938	     14.26045764	     10.72907389	      0.00000000	    -64.67290149	      0.94452439	     -2.18929458
      5.88500000	     37.32009063	      2.17151069	      2.51015082	      0.70253161	      0.67753334	     -0.26543439	    -21.03874887	     -5.47613523	    -12.77477487	    -66.24664606	      7.00568406	     -1.38895732	      0.00000000	    -29.86678901	      4.52207975	     -3.50119240	    -14.65419506	     14.44974909	     11.02688841	      0.00000000	    -64.67626142	      1.23883303	     -2.43022079
      5.89000000	     37.26203816	      2.21613145	      2.94331859	      0.70724854	      0.67808090	     -0.26567760	    -20.30396827	     -5.30506418	    -13.19048412	    -65.81532071	      7.64527033	     -1.51425271	      0.00000000	    -30.42933863	      4.29178013	     -3.32220116	    -14.30832269	     14.67557572	     11.33973810	      0.00000000	    -64.66283370	      1.54082638	     -2.72579122
      5.89500000	     37.20479576	      2.22600359	      3.30533260	      0.71186146	      0.67856459	     -0.26583834	    -19.55391534	     -5.11733960	    -13.50930210	    -65.31869881	      8.29660065	     -1.56893034	      0.00000000	    -30.96501819	      4.06118561	     -3.21713515	    -13.99304742	     14.85050229	     11.59558482	      0.00000000	    -64.67648951	      1.81159556	     -2.93339962
      5.90000000	     37.14844876	      2.27505983	      3.70897820	      0.71655542	      0.67900389	     -0.26599920	    -18.87074052	     -4.95877277	    -13.89545765	    -64.70000414	      8.86665829	     -1.60436254	      0.00000000	    -31.51290087	      3.83719783	     -3.05752998	    -13.66855783	     15.08057466	     11.89185312	      0.00000000	    -64.66138983	      2.07054205	     -3.19820626
      5.90500000	     37.08628147	      2.29219387	      4.05176915	      0.72117161	      0.67938408	     -0.26613044	    -18.17899151	     -4.79232068	    -14.20767508	    -64.00229605	      9.43150932	     -1.60458156	      0.00000000	    -32.03118705	      3.61815077	     -2.95271633	    -13.37086369	     15.25636413	     12.11109382	      0.00000000	    -64.66929523	      2.31654654	     -3.40286457
      5.91000000	     37.02091780	      2.32794675	      4.39053296	      0.72579957	      0.67970823	     -0.26623882	    -17.52039501	     -4.64193319	    -14.51380683	    -63.20507608	      9.94952709	     -1.60101794	      0.00000000	    -32.54442240	      3.41449132	     -2.84177543	    -13.07605975	     15.45253641	     12.33487049	      0.00000000	    -64.66838029	      2.54479934	     -3.61027385
      5.91500000	     36.97331312	      2.39485878	      4.78152749	      0.73047511	      0.68000625	     -0.26631726	    -16.95270215	     -4.49741555	    -14.88256996	    -62.27456824	     10.39440542	     -1.57118590	      0.00000000	    -33.07433848	      3.19630660	     -2.67747624	    -12.79561105	     15.70431089	     12.57855528	      0.00000000	    -64.66465466	      2.75946335	     -3.84660749
      5.92000000	     36.89099885	      2.42858647	      5.00438214	      0.73502837	      0.68019653	     -0.26631969	    -16.29691618	     -4.37711514	    -15.05940679	    -61.31823535	     10.86153434	     -1.63290745	      0.00000000	    -33.54634229	      3.05889469	     -2.64047265	    -12.52950122	     15.83690556	     12.63392467	      0.00000000	    -64.67345771	      2.89267411	     -3.98990129
      5.92500000	     36.91747988	      2.54169157	      5.47829839	      0.73968898	      0.68044261	     -0.26645469	    -15.93550449	     -4.25519040	    -15.55130579	    -60.13909930	     11.21837901	     -1.66014594	      0.00000000	    -34.13669188	      2.81758085	     -2.36750012	    -12.28983215	     16.13281984	     12.91293437	      0.00000000	    -64.74676131	      3.15987413	     -4.29518202
      5.93000000	     36.81526363	      2.54842247	      5.66912752	      0.74430902	      0.68053157	     -0.26645277	    -15.33587487	     -4.11973442	    -15.68065547	    -58.97163979	     11.57155440	     -1.69008274	      0.00000000	    -34.57956904	      2.67615992	     -2.32963814	    -12.05185949	     16.29855975	     12.94040521	      0.00000000	    -64.71604957	      3.27386936	     -4.38993087
      5.93500000	     36.77503648	      2.60472897	      6.00504315	      0.74895578	      0.68061724	     -0.26652848	    -14.91131254	     -3.98240239	    -15.98482125	    -57.64814038	     11.81986715	     -1.81401861	      0.00000000	    -35.09055034	      2.47374548	     -2.16801232	    -11.81521326	     16.58578380	     13.13737798	      0.00000000	    -64.73814894	      3.48407032	     -4.55069177
      5.94000000	     36.68209303	      2.67288978	      6.16155101	      0.75350394	      0.68057459	     -0.26646675	    -14.39133830	     -3.91248675	    -16.09415157	    -56.31138015	     12.13962942	     -1.99795054	      0.00000000	    -35.52171262	      2.40505421	     -2.13483321	    -11.61637764	     16.74590130	     13.11094961	      0.00000000	    -64.74731423	      3.52919849	     -4.67113405
      5.94500000	     36.75795092	      2.78196159	      6.55769984	      0.75814431	      0.68062880	     -0.26658117	    -14.23229198	     -3.79925879	    -16.50792768	    -54.73665233	     12.28519043	     -2.29320919	      0.00000000	    -36.14583062	      2.19411323	     -1.87969141	    -11.41919398	     17.06193292	     13.26950783	      0.00000000	    -64.87672854	      3.75692445	     -4.87669840
      5.95000000	     36.60974879	      2.86098003	      6.58320073	      0.76277132	      0.68040604	     -0.26651832	    -13.69710875	     -3.80856390	    -16.50041673	    -53.28035137	     12.53373992	     -2.48906391	      0.00000000	    -36.53521660	      2.23579211	     -1.85555895	    -11.21330565	     17.24742938	     13.18841290	      0.00000000	    -64.80501182	      3.71209994	     -4.95320621
      5.95500000	     36.58125467	      2.88741699	      6.89235326	      0.76743166	      0.68030675	     -0.26661446	    -13.45669479	     -3.62959116	    -16.76623713	    -51.54268852	     12.46225705	     -3.03177378	      0.00000000	    -37.01255609	      2.02371511	     -1.71382392	    -11.08002420	     17.56762444	     13.24458042	      0.00000000	    -64.83144272	      3.93573722	     -5.02790767
      5.96000000	     36.66658548	      3.02110581	      7.17756040	      0.77203806	      0.68017017	     -0.26666739	    -13.40690462	     -3.57055187	    -17.08503841	    -49.73487189	     12.57839246	     -3.46889275	      0.00000000	    -37.62577896	      1.90128476	     -1.52363103	    -10.93673904	     17.83434372	     13.26798262	      0.00000000	    -64.99748198	      4.06516326	     -5.19519268
      5.96500000	     36.67359886	      3.12207466	      7.37078004	      0.77673303	      0.67993474	     -0.26672034	    -13.27904308	     -3.51804665	    -17.28847030	    -47.88546464	     12.60297017	     -3.91020741	      0.00000000	    -38.16905808	      1.82666524	     -1.38458834	    -10.77990058	     18.07658647	     13.23312101	      0.00000000	    -65.05877131	      4.16006050	     -5.35022408
      5.97000000	     36.54203323	      3.20384028	      7.44894423	      0.78140262	      0.67952199	     -0.26674807	    -12.96673881	     -3.51403230	    -17.38867962	    -46.05081503	     12.54242375	     -4.48969728	      0.00000000	    -38.53393212	      1.84183868	     -1.34282401	    -10.68078484	     18.36665663	     13.10379339	      0.00000000	    -64.99870760	      4.17438596	     -5.38940482
